# Blender v2.79 (sub 0) OBJ File: 'test.blend'
# www.blender.org
mtllib test.mtl
o Cube.001_Cube.002
v -0.062256 1.615095 0.037709
v -0.034163 1.909832 0.379674
v -0.329611 1.902040 -0.187643
v -0.301518 2.196777 0.154322
v 0.301518 1.803223 -0.154322
v 0.329611 2.097960 0.187643
v 0.034163 2.090168 -0.379674
v 0.062256 2.384905 -0.037709
vt 0.500000 0.000000
vt 1.000000 0.000000
vt 1.000000 1.000000
vt 0.500000 1.000000
vt 0.500000 0.000000
vt 1.000000 0.000000
vt 1.000000 1.000000
vt 0.500000 1.000000
vt 0.500000 0.000000
vt 1.000000 0.000000
vt 1.000000 1.000000
vt 0.500000 1.000000
vt 0.500000 0.000000
vt 1.000000 0.000000
vt 1.000000 1.000000
vt 0.500000 1.000000
vt 1.000000 0.000000
vt 1.000000 1.000000
vt 0.500000 0.000000
vt 0.500000 1.000000
vn -0.8042 -0.4159 0.4245
vn -0.5911 0.6344 -0.4982
vn 0.8042 0.4159 -0.4245
vn 0.5911 -0.6344 0.4982
vn -0.0621 -0.6516 -0.7560
vn 0.0621 0.6516 0.7560
usemtl Material
s off
f 1/1/1 2/2/1 4/3/1 3/4/1
f 3/5/2 4/6/2 8/7/2 7/8/2
f 7/9/3 8/10/3 6/11/3 5/12/3
f 5/13/4 6/14/4 2/15/4 1/16/4
f 3/5/5 7/17/5 5/18/5 1/16/5
f 8/19/6 4/6/6 2/15/6 6/20/6
o Cube
v 0.500000 2.500000 -0.500000
v 0.500000 1.500000 -0.500000
v 0.500000 2.500000 0.500000
v 0.500000 1.500000 0.500000
v -0.500000 2.500000 -0.500000
v -0.500000 1.500000 -0.500000
v -0.500000 2.500000 0.500000
v -0.500000 1.500000 0.500000
vt 0.000000 0.000000
vt 0.000000 1.000000
vt 0.500000 1.000000
vt 0.500000 0.000000
vt 0.000000 0.000000
vt 0.500000 0.000000
vt 0.500000 1.000000
vt 0.000000 1.000000
vt 0.000000 0.000000
vt 0.000000 1.000000
vt 0.500000 1.000000
vt 0.500000 0.000000
vn -1.0000 0.0000 0.0000
vn 0.0000 0.0000 -1.0000
vn 1.0000 0.0000 0.0000
usemtl Material
s off
f 10/21/7 12/22/7 11/23/7 9/24/7
f 14/25/8 13/26/8 9/27/8 10/28/8
f 16/29/9 14/30/9 13/31/9 15/32/9
